GIL04_free3_RRA_states
nRows=8
nColumns=47

# SIMM Motion File Header:
name GIL04_free3_RRA_states
datacolumns 47
datarows 8
otherdata 1
range 0.11833000000000000000 0.11833127000000000000
endheader
time	pelvis_tx	pelvis_ty	pelvis_tz	pelvis_tilt	pelvis_list	pelvis_rotation	hip_flexion_r	hip_adduction_r	hip_rotation_r	knee_angle_r	ankle_angle_r	subtalar_angle_r	mtp_angle_r	hip_flexion_l	hip_adduction_l	hip_rotation_l	knee_angle_l	ankle_angle_l	subtalar_angle_l	mtp_angle_l	lumbar_extension	lumbar_bending	lumbar_rotation	pelvis_tx_u	pelvis_ty_u	pelvis_tz_u	pelvis_tilt_u	pelvis_list_u	pelvis_rotation_u	hip_flexion_r_u	hip_adduction_r_u	hip_rotation_r_u	knee_angle_r_u	ankle_angle_r_u	subtalar_angle_r_u	mtp_angle_r_u	hip_flexion_l_u	hip_adduction_l_u	hip_rotation_l_u	knee_angle_l_u	ankle_angle_l_u	subtalar_angle_l_u	mtp_angle_l_u	lumbar_extension_u	lumbar_bending_u	lumbar_rotation_u
      0.11833000000000000000	      1.16293788938695310000	      0.71248512581163703000	     -0.19946418290819970000	     -0.98590323912283218000	      4.73877661141845860000	      1.08457262155846920000	    -11.03914681959021300000	     -4.31336926066420560000	      0.26405128582177034000	    -42.42112318263741600000	    -26.80550512191641500000	      0.00000000000000000000	      0.00000000000000000000	     27.62058146961319200000	      9.98497410135902190000	      0.55198525755442840000	    -25.51364858053296200000	     -2.00995238010167120000	      0.00000000000000000000	      0.00000000000000000000	     -0.73604986070266976000	     -9.52444178226835270000	     11.70062603619230900000	      1.13052500017018990000	      0.11337732420070712000	     -0.07596648954275267400	    -19.51015900719031400000	      2.99393605150616220000	      4.52788870754182150000	    244.05570750013234000000	    -49.33501209401035200000	    -87.22110669853273600000	   -366.67060821304369000000	   -115.18047754646615000000	      0.00000000000000000000	      0.00000000000000000000	    -53.22899885024922600000	     16.14597877934164000000	     -3.97729680283667220000	    -56.61635673203272700000	    120.82073384937294000000	      0.00000000000000000000	      0.00000000000000000000	      1.74439102473308030000	     -0.06184692418687269500	    -29.49206890865561100000
      0.11833001000000000000	      1.16293790069220290000	      0.71248512694541033000	     -0.19946418366786456000	     -0.98590343422442450000	      4.73877664135781010000	      1.08457266683735810000	    -11.03914437903312300000	     -4.31336975401431830000	      0.26405041361069098000	    -42.42112684934347300000	    -26.80550627372104300000	      0.00000000000000000000	      0.00000000000000000000	     27.62058093732319000000	      9.98497426281879540000	      0.55198521778146303000	    -25.51364914669647600000	     -2.00995117189439700000	      0.00000000000000000000	     -0.00000000000000000000	     -0.73604984325876066000	     -9.52444178288681440000	     11.70062574127162200000	      1.13052497106584830000	      0.11337733686873314000	     -0.07596648277394320300	    -19.51015942985820200000	      2.99393429883547360000	      4.52788908670225430000	    244.05571056897901000000	    -49.33501044712289700000	    -87.22110917497752800000	   -366.67060255324492000000	   -115.18044906143703000000	      0.00000000000000000002	      0.00000000000000000000	    -53.22900223420074200000	     16.14597595868646400000	     -3.97729628392949230000	    -56.61634677288181900000	    120.82072097556120000000	     -0.00000000000000000049	     -0.00000000000000000105	      1.74439080354150660000	     -0.06184539018250111800	    -29.49206829353595100000
      0.11833003000000000000	      1.16293792330270170000	      0.71248512921295737000	     -0.19946418518719408000	     -0.98590382442762148000	      4.73877670123646140000	      1.08457275739514760000	    -11.03913949791885000000	     -4.31337074071449410000	      0.26404866918845793000	    -42.42113418275540900000	    -26.80550857732945500000	      0.00000000000000000000	     -0.00000000000000000000	     27.62057987274307900000	      9.98497458573825900000	      0.55198513823554773000	    -25.51365027902321400000	     -2.00994875548023490000	     -0.00000000000000000000	     -0.00000000000000000000	     -0.73604980837094902000	     -9.52444178412369170000	     11.70062515143027000000	      1.13052491285717440000	      0.11337736220479806000	     -0.07596646923633515500	    -19.51016027518578300000	      2.99393079349481490000	      4.52788984503439540000	    244.05571670665196000000	    -49.33500715334273700000	    -87.22111412786840400000	   -366.67059123362657000000	   -115.18039209137136000000	      0.00000000000000000004	     -0.00000000000000000008	    -53.22900900209173600000	     16.14597031738314200000	     -3.97729524610679430000	    -56.61632685465590200000	    120.82069522822286000000	      0.00000000000000000022	     -0.00000000000000000223	      1.74439036114815550000	     -0.06184232217485330400	    -29.49206706330889500000
      0.11833007000000001000	      1.16293796852369600000	      0.71248513374805289000	     -0.19946418822585232000	     -0.98590460483406628000	      4.73877682099355280000	      1.08457293851077160000	    -11.03912973568993600000	     -4.31337271411464850000	      0.26404518034369473000	    -42.42114884957860700000	    -26.80551318454286000000	      0.00000000000000000000	      0.00000000000000000000	     27.62057774358244400000	      9.98497523157684520000	      0.55198497914377931000	    -25.51365254367549100000	     -2.00994392265345520000	     -0.00000000000000000000	     -0.00000000000000000000	     -0.73604973859535228000	     -9.52444178659726150000	     11.70062397174763500000	      1.13052479643986390000	      0.11337741287697956000	     -0.07596644216116267600	    -19.51016196580816600000	      2.99392378281637580000	      4.52789136174377300000	    244.05572898191613000000	    -49.33500056576140500000	    -87.22112403365521500000	   -366.67056859430687000000	   -115.18027815121037000000	     -0.00000000000000000005	      0.00000000000000000014	    -53.22902253782555700000	     16.14595903480464800000	     -3.97729317042804320000	    -56.61628701850770500000	    120.82064373468687000000	     -0.00000000000000000237	     -0.00000000000000000265	      1.74438947632063980000	     -0.06183618616393900300	    -29.49206460290386300000
      0.11833015000000001000	      1.16293805896567040000	      0.71248514281824993000	     -0.19946419430316553000	     -0.98590616564715872000	      4.73877706050689440000	      1.08457330074220200000	    -11.03911021123063600000	     -4.31337666091416770000	      0.26403820265297956000	    -42.42117818322228800000	    -26.80552239895600100000	     -0.00000000000000000000	      0.00000000000000000000	     27.62057348525955900000	      9.98497652325266390000	      0.55198466096049170000	    -25.51365707297526300000	     -2.00993425700607590000	     -0.00000000000000000000	     -0.00000000000000000000	     -0.73604959904426492000	     -9.52444179154366570000	     11.70062161238266400000	      1.13052456360539110000	      0.11337751422154906000	     -0.07596638801099220300	    -19.51016534692182700000	      2.99390976147100840000	      4.52789439534291200000	    244.05575353211785000000	    -49.33498739051471200000	    -87.22114384524924400000	   -366.67052331533552000000	   -115.18005027076984000000	     -0.00000000000000000014	     -0.00000000000000000023	    -53.22904960910057100000	     16.14593646976021200000	     -3.97728901893712240000	    -56.61620734742581400000	    120.82054075217773000000	     -0.00000000000000000475	     -0.00000000000000000212	      1.74438770650235250000	     -0.06182391415963540300	    -29.49205968229013700000
      0.11833031000000001000	      1.16293823984956330000	      0.71248516095866843000	     -0.19946420645777896000	     -0.98590928727415528000	      4.73877753953021230000	      1.08457402520579070000	    -11.03907116230614200000	     -4.31338455451004240000	      0.26402424726679447000	    -42.42123685049877200000	    -26.80554082772758300000	     -0.00000000000000000000	     -0.00000000000000000000	     27.62056496860729000000	      9.98497910659888890000	      0.55198402459491303000	    -25.51366613155569500000	     -2.00991492573603160000	     -0.00000000000000000000	     -0.00000000000000000000	     -0.73604931994251510000	     -9.52444180143352880000	     11.70061689365390100000	      1.13052409793703900000	      0.11337771691151412000	     -0.07596627971134914400	    -19.51017210862473000000	      2.99388171882631630000	      4.52790046326271690000	    244.05580263121448000000	    -49.33496103968520400000	    -87.22118346851887300000	   -366.67043275606449000000	   -115.17959450941441000000	     -0.00000000000000000068	     -0.00000000000000000049	    -53.22910375088014200000	     16.14589134012158700000	     -3.97728071542160540000	    -56.61604801012001800000	    120.82033480541072000000	      0.00000000000000000373	      0.00000000000000001036	      1.74438416621275280000	     -0.06179937022112538800	    -29.49204984184804300000
      0.11833063000000001000	      1.16293860161712570000	      0.71248519723960269000	     -0.19946423076695380000	     -0.98591553053139358000	      4.73877849756338860000	      1.08457547413588110000	    -11.03899306443358900000	     -4.31340034168914240000	      0.26399633647540505000	    -42.42135418500826900000	    -26.80557768505197900000	     -0.00000000000000000000	     -0.00000000000000000000	     27.62054793527676500000	      9.98498427326967610000	      0.55198275186774137000	    -25.51368424864007200000	     -2.00987626329478800000	      0.00000000000000000000	      0.00000000000000000000	     -0.73604876174071521000	     -9.52444182120147250000	     11.70060745620110000000	      1.13052316660270820000	      0.11337812229474858000	     -0.07596606311485455700	    -19.51018562993279900000	      2.99382563372108380000	      4.52791260198840730000	    244.05590082418064000000	    -49.33490833668172800000	    -87.22126271538431300000	   -366.67025163220927000000	   -115.17868298480623000000	     -0.00000000000000000064	     -0.00000000000000000131	    -53.22921203135746300000	     16.14580108264527400000	     -3.97726410625586140000	    -56.61572935494022800000	    120.81992298488208000000	      0.00000000000000002946	     -0.00000000000000000237	      1.74437708302143200000	     -0.06175028262447124900	    -29.49203016410522700000
      0.11833127000000000000	      1.16293932515135620000	      0.71248526980186044000	     -0.19946427938509556000	     -0.98592801705884825000	      4.73878041357590000000	      1.08457837200771780000	    -11.03883686859422400000	     -4.31343191599674650000	      0.26394051481654884000	    -42.42158885385339300000	    -26.80565139882571300000	     -0.00000000000000000000	     -0.00000000000000000000	     27.62051386851176800000	      9.98499460652460690000	      0.55198020642934542000	    -25.51372048250294000000	     -2.00979893880757030000	      0.00000000000000000000	     -0.00000000000000000000	     -0.73604764534391787000	     -9.52444186069023680000	     11.70058858131438500000	      1.13052130394354130000	      0.11337893307443499000	     -0.07596562993303121500	    -19.51021266415782000000	      2.99371346424707730000	      4.52793689098382930000	    244.05609718920428000000	    -49.33480292529678500000	    -87.22142121041986200000	   -366.66988936324640000000	   -115.17685992800050000000	      0.00000000000000000115	     -0.00000000000000000052	    -53.22942857998548000000	     16.14562057489615300000	     -3.97723087938546540000	    -56.61509212230650700000	    120.81909963584810000000	      0.00000000000000005745	      0.00000000000000001136	      1.74436290619013470000	     -0.06165210855244480200	    -29.49199082118479600000
